<svg xmlns="http://www.w3.org/2000/svg" viewBox="0 0 100 100">
  <!-- Bolinha verde escura de fundo -->
  <circle cx="50" cy="50" r="50" fill="#0a1e0c"/>

  <!-- Ícone DNA centralizado (recortado do original, viewBox ~510-740 x 0-408) -->
  <g transform="translate(50,50) scale(0.185) translate(-625,-204)">
    <!-- Stroke decorativo -->
    <g stroke-width="2" fill="none" stroke-linecap="butt">
      <path stroke="#105A2C" d="M651.9,78.8c10.1,4.7,20.1,9.9,29.8,15.6"/>
      <path stroke="#105A2C" d="M671.4,116.2c-9.7-5.8-20.5-9.8-31.2-13.5c0,0-0.1,0-0.1,0c-0.1,0-0.1,0.1-0.2,0.1"/>
      <path stroke="#105A2C" d="M610.3,305.1c0.2,0.2,0.1,0.2-0.4,0c-10.3-4.5-20.3-10-29.8-16.3"/>
      <path stroke="#105A2C" d="M595.3,334.5c-10.3-5-20.5-10.4-30.5-16.3"/>
    </g>

    <!-- Forma escura do topo (branca no original → branca aqui) -->
    <path fill="#ffffff" d="M651.9,78.8c10.1,4.7,20.1,9.9,29.8,15.6c9.3,5.5,18.1,11.9,26.4,19
      c8.6,7.4,15.5,15.5,20.7,24.5c7.6,13,10.2,26.5,7.8,40.5c-2,12-7.8,23.5-15.4,33.2
      c-0.1,0.1-0.1,0.1-0.2,0c0,0-0.1-0.1-0.1-0.1c0.9-7.8,0.7-15.8-0.4-24
      c-4.3-30.7-21.8-55.9-49.1-71.3c-9.7-5.8-20.5-9.8-31.2-13.5c0,0-0.1,0-0.1,0
      c-0.1,0-0.1,0.1-0.2,0.1c-0.1-0.3-0.3-0.5-0.6-0.6c-15.9-5.5-31.1-12-45.8-19.4
      c-5.8-3-11.6-6.6-17.4-11C561.7,60.9,554.3,47,558.8,29c2.2-8.9,6.6-18.3,13.1-28.2
      c0.1-0.1,0.2-0.1,0.3-0.1c0.1,0,0.1,0.1,0.1,0.2c1.3,8.5,4.3,16.2,9,23
      c7.4,10.7,16.4,20.1,27.1,28.2C622,62.4,636.5,71.3,651.9,78.8z"/>

    <!-- Seta verde topo -->
    <path fill="#1CAC50" d="M681.7,94.4c-9.8-5.7-19.7-10.9-29.8-15.6c7-24.2,2.4-49.8-9.1-71.7
      c0-0.1,0-0.2,0.1-0.3c0.1,0,0.1,0,0.2,0C670.6,27.4,692.5,58.4,681.7,94.4z"/>

    <!-- Corpo principal verde da hélice -->
    <path fill="#1CAC50" d="M671.4,116.2c-9,14.5-23.2,27.7-36.8,36.9c-7.5,5.1-14.9,10.2-22.3,15.2
      c-11.8,8-23.1,17-34,26.8c-0.1,0.1-0.1,0.2,0,0.3c0,0,0.1,0.1,0.2,0.1h109.7
      c0.3,0,0.7-0.2,0.9-0.4c4.5-5.6,8-11.5,10.5-17.9c0.1-0.2,0-0.3-0.2-0.4
      c0,0-0.1,0-0.1,0H656c-0.3,0-0.6,0.2-0.7,0.5c-0.7,2-1.4,3.2-1.9,3.8
      c-2.7,2.5-5.5,3.1-8.6,1.9c-9.1-3.6-4.1-17.6,5.5-14.3c2.6,0.9,4.2,2.8,4.9,5.8
      c0,0.2,0.2,0.4,0.5,0.4h44.1c0.3,0,0.6-0.2,0.7-0.6c0.1-0.7,0.2-1.2,0.4-1.5
      c0.1-0.2,0.4-0.3,0.6-0.1c0.1,0,0.1,0.1,0.2,0.2c3.5,7.4,5.6,13.4,6.4,18.2
      c2,12-0.2,23.3-6.6,33.8c-5,8.2-11.2,15.8-18.7,22.7c-15,13.9-30.1,24.3-48.1,35.9
      c-9.2,5.9-17.3,13.1-24.4,21.7c0.2,0.2,0.1,0.2-0.4,0c-10.3-4.5-20.3-10-29.8-16.3
      c3.9-5,8-9.5,12.3-13.7c9.7-9.4,18.7-16.2,31.2-24.6c16.7-11.3,32.8-23.2,47-35.9
      c0.1-0.1,0.2-0.3,0-0.5c-0.1-0.1-0.2-0.1-0.3-0.1H560.9c-0.1,0-0.2,0.1-0.3,0.1
      c-4,5.1-7.2,10.4-9.5,16c-0.1,0.2,0,0.5,0.2,0.6c0.1,0,0.1,0,0.2,0h43.3
      c0.3,0,0.6-0.2,0.7-0.5c0.8-3.1,2.6-5,5.5-5.7c8-2.1,13.2,8.2,6.7,13.4
      c-4.5,3.6-10.8,1.2-12.3-4.6c-0.1-0.3-0.4-0.5-0.7-0.5H551c-0.4,0-0.8,0.3-0.9,0.7
      c-0.1,0.6-0.2,0.8-0.2,0.9c-0.2,0.2-0.5,0.1-0.6,0c0,0,0-0.1-0.1-0.1
      c-3.4-7.1-5.6-13.1-6.6-17.9c-3.9-18.8,5-35.6,17.9-48.7
      c10.5-10.7,22.5-20.5,36-29.5c9-6,15.4-10.2,19.2-12.6
      c8.6-5.5,16.7-13.1,24-22.8c0.1-0.1,0.2-0.1,0.2-0.1c0,0,0.1,0,0.1,0
      C650.9,106.4,661.6,110.3,671.4,116.2z
      M686.9,198.4c0.2-0.2,0.2-0.6,0-0.8c-0.1-0.1-0.2-0.2-0.4-0.2H576.2
      c-0.1,0-0.3,0.1-0.4,0.2l-13.4,13.4c-0.2,0.2-0.2,0.6,0,0.8
      c0.1,0.1,0.2,0.2,0.4,0.2h110.3c0.1,0,0.3-0.1,0.4-0.2L686.9,198.4z"/>

    <!-- Elipse verde do meio -->
    <ellipse fill="#1CAC50" cx="670" cy="149.3" rx="6.5" ry="8.8"/>

    <!-- Forma branca do baixo -->
    <path fill="#ffffff" d="M580.1,288.9c9.5,6.3,19.4,11.8,29.8,16.3c0.5,0.2,0.6,0.2,0.4,0
      c0.2,0.4,0.4,0.7,0.6,0.8c15.8,6.8,30.9,14.7,45.1,23.6c8.4,5.3,16,11.4,22.6,18.4
      c10.1,10.6,15.3,24,11.4,38.8c-2,7.4-5.3,14.4-10,20.9c-0.1,0.1-0.3,0.1-0.4,0
      c-0.1,0-0.1-0.1-0.1-0.2c-0.9-8.5-7.8-18.4-13.8-25.2c-18.7-20.9-44.8-36.2-70.4-47.9
      c-10.3-5-20.5-10.4-30.5-16.3c-15.5-9-30.9-20.1-42-34.2c-13.2-16.7-16.3-35.2-9.4-55.5
      c3.2-9.3,7.4-17.8,12.7-25.5c0.1-0.1,0.2-0.1,0.3,0c0,0,0.1,0.1,0.1,0.1
      c0,12.8,2.8,24.9,8.4,36.3c4.9,10.1,11.1,19,18.5,26.9C561.4,275,570.3,282.5,580.1,288.9z"/>

    <!-- Elipse verde do baixo -->
    <ellipse fill="#1CAC50" cx="580.7" cy="261.2" rx="6.5" ry="8.8"/>

    <!-- Seta verde baixo -->
    <path fill="#1CAC50" d="M595.3,334.5c-1.9,7.6-2.8,14.5-2.7,20.8c0.3,17.1,4.4,33.3,12.4,48.4
      c0,0.1,0,0.2-0.1,0.2c-0.1,0-0.1,0-0.2,0c-11.9-8.5-21.9-18.9-30.2-31.1
      c-11-16.3-15-35.3-9.7-54.5C574.8,324.1,584.9,329.5,595.3,334.5z"/>
  </g>
</svg>
